<?xml version="1.0" encoding="utf-8"?>
<!-- Generator: Adobe Illustrator 16.0.0, SVG Export Plug-In . SVG Version: 6.00 Build 0)  -->
<!DOCTYPE svg PUBLIC "-//W3C//DTD SVG 1.1//EN" "http://www.w3.org/Graphics/SVG/1.1/DTD/svg11.dtd">
<svg version="1.1" id="Layer_2" xmlns="http://www.w3.org/2000/svg" xmlns:xlink="http://www.w3.org/1999/xlink" x="0px" y="0px"
	 width="112.417px" height="140.499px" viewBox="0 0 112.417 140.499" enable-background="new 0 0 112.417 140.499"
	 xml:space="preserve">
<polygon fill="#ADAFD4" stroke="#FFFFFF" stroke-width="2" stroke-miterlimit="10" points="56.333,4.092 47.333,40.091 
	38.333,49.091 38.333,57.757 2.334,121.091 38.667,121.091 38.667,129.757 47.001,139.424 65.333,139.424 74.335,130.091 
	74.335,120.757 110.333,120.757 74.335,57.757 74.335,49.091 65.667,40.091 "/>
<polygon fill="#ADAFD4" stroke="#FFFFFF" stroke-width="2" stroke-miterlimit="10" points="38.958,74.89 16.258,113.21 
	38.958,113.21 "/>
<polygon fill="#ADAFD4" stroke="#FFFFFF" stroke-width="2" stroke-miterlimit="10" points="74.646,74.89 98.312,113.21 
	74.646,113.21 "/>
<path fill="#ADAFD4" stroke="#FFFFFF" stroke-width="2" stroke-miterlimit="10" d="M48,71.435"/>
<polygon fill="#ADAFD4" stroke="#FFFFFF" stroke-width="2" stroke-miterlimit="10" points="48,119.246 48.401,127.286 
	52.153,131.424 61.096,131.424 62.806,131.45 65.854,127.45 65.889,119.246 65.889,71.435 48,71.435 "/>
<polygon fill="#ADAFD4" stroke="#FFFFFF" stroke-width="2" stroke-miterlimit="10" points="56.022,41.75 48.335,62.75 64.835,62.75 
	"/>
</svg>
