<?xml version="1.0" encoding="utf-8"?>
<!-- Generator: Adobe Illustrator 16.0.0, SVG Export Plug-In . SVG Version: 6.00 Build 0)  -->
<!DOCTYPE svg PUBLIC "-//W3C//DTD SVG 1.1//EN" "http://www.w3.org/Graphics/SVG/1.1/DTD/svg11.dtd">
<svg version="1.1" id="Layer_2" xmlns="http://www.w3.org/2000/svg" xmlns:xlink="http://www.w3.org/1999/xlink" x="0px" y="0px"
	 width="112.417px" height="157.249px" viewBox="0 0 112.417 157.249" enable-background="new 0 0 112.417 157.249"
	 xml:space="preserve">
<rect x="-27.833" y="4.75" display="none" fill="#D24A43" stroke="#FFFFFF" stroke-width="2" stroke-miterlimit="10" width="148.5" height="161.25"/>
<polygon fill="#51436F" stroke="#FFFFFF" stroke-width="2" stroke-miterlimit="10" points="56.333,4.75 54.929,4.8 47.333,45.029 
	38.333,55.099 38.333,64.796 2.334,135.661 38.667,135.661 38.667,145.358 47.001,156.174 65.333,156.174 74.335,145.731 
	74.335,135.288 110.333,135.288 74.335,64.796 74.335,55.099 65.667,45.029 "/>
<polygon fill="#51436F" stroke="#FFFFFF" stroke-width="2" stroke-miterlimit="10" points="37.958,84.873 16.034,127.127 
	37.958,127.127 "/>
<polygon fill="#51436F" stroke="#FFFFFF" stroke-width="2" stroke-miterlimit="10" points="74.385,84.702 97.85,127.298 
	74.385,127.298 "/>
<path fill="#51436F" stroke="#FFFFFF" stroke-width="2" stroke-miterlimit="10" d="M48,88.185"/>
<polygon fill="#51436F" stroke="#FFFFFF" stroke-width="2" stroke-miterlimit="10" points="46.168,133.48 46.629,143.062 
	50.963,147.994 61.295,147.994 63.27,148.025 66.792,143.258 66.833,133.48 66.833,76.5 46.168,76.5 "/>
<polygon fill="#51436F" stroke="#FFFFFF" stroke-width="2" stroke-miterlimit="10" points="55.537,42 46.38,69 66.037,69 "/>
</svg>
